<?xml version="1.0" encoding="UTF-8" standalone="no"?>
<!-- Created with Inkscape (http://www.inkscape.org/) -->

<svg
   version="1.1"
   id="svg4587"
   width="1200"
   height="1600"
   viewBox="0 0 1200 1600"
   sodipodi:docname="ANITA 1.svg"
   inkscape:version="1.2.1 (9c6d41e410, 2022-07-14)"
   xmlns:inkscape="http://www.inkscape.org/namespaces/inkscape"
   xmlns:sodipodi="http://sodipodi.sourceforge.net/DTD/sodipodi-0.dtd"
   xmlns="http://www.w3.org/2000/svg"
   xmlns:svg="http://www.w3.org/2000/svg">
  <defs
     id="defs4591">
    <linearGradient
       id="linearGradient5224"
       inkscape:swatch="solid">
      <stop
         style="stop-color:#d50000;stop-opacity:1;"
         offset="0"
         id="stop5222" />
    </linearGradient>
  </defs>
  <sodipodi:namedview
     id="namedview4589"
     pagecolor="#ffffff"
     bordercolor="#000000"
     borderopacity="0.25"
     inkscape:showpageshadow="2"
     inkscape:pageopacity="0.0"
     inkscape:pagecheckerboard="0"
     inkscape:deskcolor="#d1d1d1"
     showgrid="false"
     inkscape:zoom="0.50875"
     inkscape:cx="288.94349"
     inkscape:cy="825.55283"
     inkscape:window-width="1920"
     inkscape:window-height="1017"
     inkscape:window-x="-8"
     inkscape:window-y="-8"
     inkscape:window-maximized="1"
     inkscape:current-layer="g4593" />
  <g
     inkscape:groupmode="layer"
     inkscape:label="Image"
     id="g4593">
    <g
       id="g5577">
      <ellipse
         style="fill:none;stroke:#ff7e71;stroke-width:14.914;stroke-dasharray:none;stroke-opacity:1"
         id="path4597"
         cx="631.94104"
         cy="867.32184"
         rx="367.56757"
         ry="347.42014" />
      <ellipse
         style="fill:none;stroke:#ff8779;stroke-width:7.314;stroke-dasharray:none;stroke-opacity:1"
         id="path5079"
         cx="628.50122"
         cy="867.32184"
         rx="413.26782"
         ry="389.6806" />
      <path
         style="fill:none;stroke:#ff7965;stroke-width:6.114;stroke-dasharray:none;fill-opacity:1;stroke-opacity:1"
         d="m 330.22113,913.02211 c 19.78764,-17.12104 40.84231,-31.6686 56.51106,-58.96806 11.33452,-19.74798 20.39807,-33.85482 41.27764,-52.57985 0,0 10.68647,-6.76768 16.70762,-8.35381 15.38486,-4.05277 40.17779,-1.07506 47.66584,-2.457 8.15853,-1.50568 14.69254,-4.63588 21.62162,-7.371 0,0 -3.94355,48.72729 -8.3538,72.72727 -3.48238,18.95063 -14.25062,56.01965 -14.25062,56.01965 -20.36944,16.33266 -26.12656,7.86328 -32.43243,-3.9312 0,0 1.5248,-22.92387 3.4398,-40.29484 0.25321,-2.29687 -25.12237,-13.73018 -34.88943,-11.79362 -5.48628,1.08779 -11.23545,31.64991 -11.79361,29.97543 -5.75025,10.70092 -14.26615,17.31131 -27.02703,25.55283 -12.9991,8.39537 -30.9341,6.61233 -46.68305,8.35381 z"
         id="path5081"
         sodipodi:nodetypes="cscsscsccsscscc" />
      <path
         style="fill:none;fill-opacity:1;stroke:#ff664e;stroke-width:6.114;stroke-dasharray:none;stroke-opacity:1"
         d="m 439.80344,842.26045 c 15.79888,-4.15295 30.09793,-4.52444 40.78624,-0.9828 1.17874,-8.19105 3.22598,-15.26218 0.4914,-29.97543 -1.48783,-8.00517 -15.87149,-9.26738 -27.51843,-1.4742 -11.03764,13.69623 -13.06698,25.20208 -13.75921,32.43243 z"
         id="path5132"
         sodipodi:nodetypes="ccscc" />
      <path
         style="fill:none;stroke:#ff7164;stroke-width:6.114;stroke-dasharray:none;fill-opacity:1;stroke-opacity:1"
         d="m 523.83292,842.75184 c -0.34057,-8.69438 3.62425,-13.08337 13.75922,-11.30221 l 16.21621,9.33661 c 25.84108,-5.50926 43.0604,-8.27083 57.49386,-3.9312 11.12911,3.34613 22.09597,7.29003 17.69042,32.92383 -7.47485,18.05721 -13.49291,33.04683 -27.51843,43.24324 -7.30552,2.64961 -23.36894,20.53791 -22.11302,-7.371 l 5.89681,-31.94104 c -2.30251,-11.89648 -7.59021,-15.99281 -21.62163,-0.4914 -6.58928,21.14494 -14.87391,35.50843 -24.07862,46.19165 -4.88065,3.24561 -9.49219,7.56771 -18.18182,-4.4226 l 8.35381,-46.19165 z"
         id="path5134"
         sodipodi:nodetypes="cccsccccccccc" />
      <ellipse
         style="fill:none;stroke:#ff6457;stroke-width:6.114;stroke-dasharray:none;fill-opacity:1;stroke-opacity:1"
         id="path5136"
         cx="657.00244"
         cy="877.39557"
         rx="16.216217"
         ry="39.557739" />
      <ellipse
         style="fill:none;stroke:#ff665b;stroke-width:6.114;stroke-dasharray:none;fill-opacity:1;stroke-opacity:1"
         id="path5138"
         cx="655.77399"
         cy="807.12531"
         rx="14.987715"
         ry="16.461916" />
      <path
         style="fill:none;stroke:#ff6258;stroke-width:6.114;stroke-dasharray:none;fill-opacity:1;stroke-opacity:1"
         d="m 720.39312,812.77642 c -10.71627,0.84427 -25.82614,0.27237 -35.38083,3.4398 -4.87481,4.75021 -6.65713,9.03347 -3.9312,13.26782 4.80994,7.47158 24.97124,-0.40762 23.58722,12.77641 -0.94916,9.04158 -1.47194,17.09868 -2.36265,23.58867 -1.1298,8.23206 -6.60487,14.42103 -5.49976,29.97398 1.1865,16.69843 10.10853,19.72398 16.21622,18.67322 9.30755,-1.60125 15.92525,-10.70822 17.69041,-33.41523 l -2.457,-40.29484 c -0.49807,-8.16841 16.05242,-1.25583 24.07863,-16.70762 1.0223,-8.21286 -5.57273,-13.52387 -31.94104,-11.30221 z"
         id="path5140"
         sodipodi:nodetypes="ccssssscscc" />
      <path
         style="fill:none;stroke:#ff5d4d;stroke-width:6.114;stroke-dasharray:none;fill-opacity:1;stroke-opacity:1"
         d="m 795.91287,812.20595 c -10.71627,0.84427 -25.82614,0.27237 -35.38083,3.4398 -4.87481,4.75021 -6.65713,9.03347 -3.9312,13.26782 4.80994,7.47158 24.97124,-0.40762 23.58722,12.77641 -0.94916,9.04158 -1.47194,17.09868 -2.36265,23.58867 -1.1298,8.23206 -6.60487,14.42103 -5.49976,29.97398 1.1865,16.69843 10.10853,19.72398 16.21622,18.67322 9.30755,-1.60125 15.92525,-10.70822 17.69041,-33.41523 -0.819,-13.11443 -1.638,-24.81652 -2.457,-40.29484 -0.43241,-8.17215 16.05242,-1.25583 24.07863,-16.70762 1.0223,-8.21286 -5.57273,-13.52387 -31.94104,-11.30221 z"
         id="path5140-1"
         sodipodi:nodetypes="ccssssscscc" />
      <path
         style="fill:none;fill-opacity:1;stroke:#ff5c4f;stroke-width:6.114;stroke-dasharray:none;stroke-opacity:1"
         d="m 900.2457,833.41524 11.30221,-1.96561 -3.4398,71.74447 c -3.7674,1.14628 -7.53481,4.47783 -11.30221,-0.4914 l -0.4914,-0.98279 c -3.07523,25.63868 -67.14549,20.3413 -74.69288,-1.96561 -6.67432,-19.72649 -6.9361,-39.90925 7.37101,-57.49386 25.77627,-30.089 62.7581,-8.35234 67.81327,-0.4914 z"
         id="path5282"
         sodipodi:nodetypes="cccccsccc" />
      <ellipse
         style="fill:none;fill-opacity:1;stroke:#ff6359;stroke-width:6.114;stroke-dasharray:none;stroke-opacity:1"
         id="path5284"
         cx="864.12775"
         cy="874.69287"
         rx="20.884521"
         ry="24.078625" />
    </g>
  </g>
</svg>
